<svg xmlns="http://www.w3.org/2000/svg" viewBox="0 0 100 100">
  <rect width="100" height="100" rx="22" fill="#1565c0"/>
  <circle cx="50" cy="50" r="30" fill="none" stroke="#ffffff" stroke-width="2.5"/>
  <g transform="translate(28.4 28.4) scale(1.8)" fill="#ffffff">
    <path d="M4 16c0 .88.39 1.67 1 2.22V20c0 .55.45 1 1 1h1c.55 0 1-.45 1-1v-1h8v1c0 .55.45 1 1 1h1c.55 0 1-.45 1-1v-1.78c.61-.55 1-1.34 1-2.22V6c0-3.5-3.58-4-8-4s-8 .5-8 4v10zm3.5 1c-.83 0-1.5-.67-1.5-1.5S6.67 14 7.5 14s1.5.67 1.5 1.5S8.33 17 7.5 17zm9 0c-.83 0-1.5-.67-1.5-1.5s.67-1.5 1.5-1.5 1.5.67 1.5 1.5-.67 1.5-1.5 1.5zm1.5-6H6V6h12v5z"/>
  </g>
  <g fill="#8bc34a">
    <path d="M50 6c-3.5 0-6.3 2.8-6.3 6.3c0 4.5 6.3 7.7 6.3 7.7s6.3-3.2 6.3-7.7c0-3.5-2.8-6.3-6.3-6.3z"/>
    <circle cx="50" cy="12.3" r="2.3" fill="#ffffff"/>
  </g>
  <g fill="#8bc34a" transform="rotate(180 50 50)">
    <path d="M50 6c-3.5 0-6.3 2.8-6.3 6.3c0 4.5 6.3 7.7 6.3 7.7s6.3-3.2 6.3-7.7c0-3.5-2.8-6.3-6.3-6.3z"/>
    <circle cx="50" cy="12.3" r="2.3" fill="#ffffff"/>
  </g>
</svg>
